<svg xmlns="http://www.w3.org/2000/svg" xmlns:xlink="http://www.w3.org/1999/xlink" version="1.1" x="0px" y="0px" viewBox="0 0 100 125" style="enable-background:new 0 0 100 100;" xml:space="preserve"><path d="M45.3,52.3v27.6c0,0.6-0.5,1-1,1H13.7c-0.6,0-1-0.5-1-1V32.5c0-7.3,5.8-13.3,13-13.7c0.2,0,0.4,0,0.5,0v0h10.1  c0.6,0,1,0.5,1,1v11.7c0,0.6-0.5,1-1,1h-9.1c-0.6,0-1,0.5-1,1v17.7h18C44.8,51.3,45.3,51.7,45.3,52.3z"/><path d="M87,52.3v27.6c0,0.6-0.5,1-1,1H55.4c-0.6,0-1-0.5-1-1V32.5c0-7.3,5.8-13.3,13-13.7c0.2,0,0.4,0,0.5,0v0h10.1  c0.6,0,1,0.5,1,1v11.7c0,0.6-0.5,1-1,1H69c-0.6,0-1,0.5-1,1v17.7h18C86.5,51.3,87,51.7,87,52.3z"/></svg>